<svg width="200" height="81" viewBox="0 0 200 81" fill="none" xmlns="http://www.w3.org/2000/svg">
<path d="M19.8066 7.40625L24.6406 25.916L29.457 7.40625H36.207V33H31.0215V26.0742L31.4961 15.4043L26.3809 33H22.8652L17.75 15.4043L18.2246 26.0742V33H13.0566V7.40625H19.8066Z" fill="#FF4545"/>
<path d="M49.8457 33C49.7051 32.707 49.5645 32.2148 49.4238 31.5234C48.5332 32.7422 47.3262 33.3516 45.8027 33.3516C44.209 33.3516 42.8848 32.8242 41.8301 31.7695C40.7871 30.7148 40.2656 29.3496 40.2656 27.6738C40.2656 25.6816 40.8984 24.1406 42.1641 23.0508C43.4414 21.9609 45.2754 21.4043 47.666 21.3809H49.1777V19.8516C49.1777 18.9961 49.0312 18.3926 48.7383 18.041C48.4453 17.6895 48.0176 17.5137 47.4551 17.5137C46.2129 17.5137 45.5918 18.2402 45.5918 19.6934H40.6172C40.6172 17.9355 41.2734 16.4883 42.5859 15.3516C43.9102 14.2031 45.5801 13.6289 47.5957 13.6289C49.6816 13.6289 51.293 14.1738 52.4297 15.2637C53.5781 16.3418 54.1523 17.8887 54.1523 19.9043V28.8516C54.1758 30.4922 54.4102 31.7754 54.8555 32.7012V33H49.8457ZM46.9102 29.4492C47.4609 29.4492 47.9297 29.3379 48.3164 29.1152C48.7031 28.8926 48.9902 28.6289 49.1777 28.3242V24.3691H47.9824C47.1387 24.3691 46.4707 24.6387 45.9785 25.1777C45.498 25.7168 45.2578 26.4375 45.2578 27.3398C45.2578 28.7461 45.8086 29.4492 46.9102 29.4492ZM62.9766 33H57.9844V6H62.9766V33ZM66.1582 22.9102C66.1582 19.793 66.6855 17.4668 67.7402 15.9316C68.7949 14.3965 70.3301 13.6289 72.3457 13.6289C73.8105 13.6289 75.0293 14.2617 76.002 15.5273V6H81.0117V33H76.4941L76.2656 31.0664C75.2461 32.5898 73.9336 33.3516 72.3281 33.3516C70.3359 33.3516 68.8125 32.5898 67.7578 31.0664C66.7148 29.543 66.1816 27.3047 66.1582 24.3516V22.9102ZM71.1504 24.1582C71.1504 26.0332 71.3496 27.3457 71.748 28.0957C72.1465 28.834 72.8203 29.2031 73.7695 29.2031C74.7539 29.2031 75.498 28.7637 76.002 27.8848V19.2012C75.5098 18.2637 74.7715 17.7949 73.7871 17.7949C72.873 17.7949 72.2051 18.1641 71.7832 18.9023C71.3613 19.6406 71.1504 20.9531 71.1504 22.8398V24.1582ZM84.1055 22.875C84.1055 19.9922 84.7852 17.7305 86.1445 16.0898C87.5039 14.4492 89.3848 13.6289 91.7871 13.6289C94.2129 13.6289 96.1055 14.4492 97.4648 16.0898C98.8242 17.7305 99.5039 20.0039 99.5039 22.9102V24.123C99.5039 27.0176 98.8301 29.2793 97.4824 30.9082C96.1348 32.5371 94.248 33.3516 91.8223 33.3516C89.3848 33.3516 87.4863 32.5371 86.127 30.9082C84.7793 29.2676 84.1055 26.9941 84.1055 24.0879V22.875ZM89.0977 24.123C89.0977 27.5215 90.0059 29.2207 91.8223 29.2207C93.498 29.2207 94.4004 27.8027 94.5293 24.9668L94.5469 22.875C94.5469 21.1406 94.3066 19.8574 93.8262 19.0254C93.3457 18.1816 92.666 17.7598 91.7871 17.7598C90.9434 17.7598 90.2812 18.1816 89.8008 19.0254C89.332 19.8574 89.0977 21.1406 89.0977 22.875V24.123ZM107.168 13.9805L107.309 15.8613C108.434 14.373 109.904 13.6289 111.721 13.6289C114.99 13.6289 116.672 15.9199 116.766 20.502V33H111.773V20.8711C111.773 19.793 111.609 19.0137 111.281 18.5332C110.965 18.041 110.402 17.7949 109.594 17.7949C108.691 17.7949 107.988 18.2578 107.484 19.1836V33H102.492V13.9805H107.168ZM129.369 33C129.229 32.707 129.088 32.2148 128.947 31.5234C128.057 32.7422 126.85 33.3516 125.326 33.3516C123.732 33.3516 122.408 32.8242 121.354 31.7695C120.311 30.7148 119.789 29.3496 119.789 27.6738C119.789 25.6816 120.422 24.1406 121.688 23.0508C122.965 21.9609 124.799 21.4043 127.189 21.3809H128.701V19.8516C128.701 18.9961 128.555 18.3926 128.262 18.041C127.969 17.6895 127.541 17.5137 126.979 17.5137C125.736 17.5137 125.115 18.2402 125.115 19.6934H120.141C120.141 17.9355 120.797 16.4883 122.109 15.3516C123.434 14.2031 125.104 13.6289 127.119 13.6289C129.205 13.6289 130.816 14.1738 131.953 15.2637C133.102 16.3418 133.676 17.8887 133.676 19.9043V28.8516C133.699 30.4922 133.934 31.7754 134.379 32.7012V33H129.369ZM126.434 29.4492C126.984 29.4492 127.453 29.3379 127.84 29.1152C128.227 28.8926 128.514 28.6289 128.701 28.3242V24.3691H127.506C126.662 24.3691 125.994 24.6387 125.502 25.1777C125.021 25.7168 124.781 26.4375 124.781 27.3398C124.781 28.7461 125.332 29.4492 126.434 29.4492ZM136.611 22.9102C136.611 19.793 137.139 17.4668 138.193 15.9316C139.248 14.3965 140.783 13.6289 142.799 13.6289C144.264 13.6289 145.482 14.2617 146.455 15.5273V6H151.465V33H146.947L146.719 31.0664C145.699 32.5898 144.387 33.3516 142.781 33.3516C140.789 33.3516 139.266 32.5898 138.211 31.0664C137.168 29.543 136.635 27.3047 136.611 24.3516V22.9102ZM141.604 24.1582C141.604 26.0332 141.803 27.3457 142.201 28.0957C142.6 28.834 143.273 29.2031 144.223 29.2031C145.207 29.2031 145.951 28.7637 146.455 27.8848V19.2012C145.963 18.2637 145.225 17.7949 144.24 17.7949C143.326 17.7949 142.658 18.1641 142.236 18.9023C141.814 19.6406 141.604 20.9531 141.604 22.8398V24.1582ZM154.559 22.875C154.559 19.9922 155.238 17.7305 156.598 16.0898C157.957 14.4492 159.838 13.6289 162.24 13.6289C164.666 13.6289 166.559 14.4492 167.918 16.0898C169.277 17.7305 169.957 20.0039 169.957 22.9102V24.123C169.957 27.0176 169.283 29.2793 167.936 30.9082C166.588 32.5371 164.701 33.3516 162.275 33.3516C159.838 33.3516 157.939 32.5371 156.58 30.9082C155.232 29.2676 154.559 26.9941 154.559 24.0879V22.875ZM159.551 24.123C159.551 27.5215 160.459 29.2207 162.275 29.2207C163.951 29.2207 164.854 27.8027 164.982 24.9668L165 22.875C165 21.1406 164.76 19.8574 164.279 19.0254C163.799 18.1816 163.119 17.7598 162.24 17.7598C161.396 17.7598 160.734 18.1816 160.254 19.0254C159.785 19.8574 159.551 21.1406 159.551 22.875V24.123ZM172.752 15.2637L170.467 13.875C171.299 12.2227 171.732 10.6172 171.768 9.05859V6H175.67V8.77734C175.658 9.84375 175.377 10.998 174.826 12.2402C174.287 13.4707 173.596 14.4785 172.752 15.2637ZM183.527 27.9023C183.527 27.4805 183.322 27.0938 182.912 26.7422C182.514 26.3789 181.617 25.8926 180.223 25.2832C178.172 24.4512 176.76 23.5898 175.986 22.6992C175.225 21.8086 174.844 20.7012 174.844 19.377C174.844 17.7129 175.441 16.3418 176.637 15.2637C177.844 14.1738 179.438 13.6289 181.418 13.6289C183.504 13.6289 185.174 14.168 186.428 15.2461C187.682 16.3242 188.309 17.7715 188.309 19.5879H183.334C183.334 18.041 182.689 17.2676 181.4 17.2676C180.873 17.2676 180.439 17.4316 180.1 17.7598C179.76 18.0879 179.59 18.5449 179.59 19.1309C179.59 19.5527 179.777 19.9277 180.152 20.2559C180.527 20.5723 181.412 21.0293 182.807 21.627C184.834 22.377 186.264 23.2148 187.096 24.1406C187.939 25.0547 188.361 26.2441 188.361 27.709C188.361 29.4082 187.723 30.7734 186.445 31.8047C185.168 32.8359 183.492 33.3516 181.418 33.3516C180.023 33.3516 178.793 33.082 177.727 32.543C176.66 31.9922 175.822 31.2305 175.213 30.2578C174.615 29.2852 174.316 28.2363 174.316 27.1113H179.045C179.068 27.9785 179.268 28.6289 179.643 29.0625C180.029 29.4961 180.656 29.7129 181.523 29.7129C182.859 29.7129 183.527 29.1094 183.527 27.9023Z" fill="#FF4545"/>
<path d="M9.51562 51.5078H4.81641L3.90234 55H0.257812L5.58984 37.9375H8.74219L14.1094 55H10.4297L9.51562 51.5078ZM5.56641 48.6367H8.75391L7.16016 42.5547L5.56641 48.6367ZM26.6016 37.9375V49.75C26.5859 51.5234 26.0977 52.8828 25.1367 53.8281C24.1758 54.7656 22.7969 55.2344 21 55.2344C19.1719 55.2344 17.7734 54.7578 16.8047 53.8047C15.8438 52.8516 15.3633 51.4727 15.3633 49.668V37.9375H18.832V49.6797C18.832 50.6484 18.9883 51.3398 19.3008 51.7539C19.6133 52.168 20.1797 52.375 21 52.375C21.8203 52.375 22.3828 52.1719 22.6875 51.7656C22.9922 51.3516 23.1484 50.6758 23.1562 49.7383V37.9375H26.6016ZM40.2656 40.8086H36.0469V55H32.5898V40.8086H28.4414V37.9375H40.2656V40.8086ZM53.9297 48.0039C53.9297 50.293 53.3867 52.0703 52.3008 53.3359C51.2227 54.6016 49.7227 55.2344 47.8008 55.2344C45.8867 55.2344 44.3828 54.6094 43.2891 53.3594C42.1953 52.1016 41.6406 50.3438 41.625 48.0859V45.168C41.625 42.8242 42.168 40.9961 43.2539 39.6836C44.3398 38.3633 45.8477 37.7031 47.7773 37.7031C49.6758 37.7031 51.1719 38.3516 52.2656 39.6484C53.3594 40.9375 53.9141 42.75 53.9297 45.0859V48.0039ZM50.4727 45.1445C50.4727 43.6055 50.2539 42.4609 49.8164 41.7109C49.3789 40.9609 48.6992 40.5859 47.7773 40.5859C46.8633 40.5859 46.1875 40.9492 45.75 41.6758C45.3125 42.3945 45.0859 43.4922 45.0703 44.9688V48.0039C45.0703 49.4961 45.293 50.5977 45.7383 51.3086C46.1836 52.0117 46.8711 52.3633 47.8008 52.3633C48.6992 52.3633 49.3672 52.0195 49.8047 51.332C50.2422 50.6367 50.4648 49.5625 50.4727 48.1094V45.1445ZM61.9336 55V37.9375H67.207C68.9883 37.9375 70.3398 38.3359 71.2617 39.1328C72.1914 39.9219 72.6562 41.082 72.6562 42.6133C72.6562 43.4805 72.4648 44.2266 72.082 44.8516C71.6992 45.4766 71.1758 45.9336 70.5117 46.2227C71.2773 46.4414 71.8672 46.8828 72.2812 47.5469C72.6953 48.2031 72.9023 49.0156 72.9023 49.9844C72.9023 51.6406 72.4453 52.8906 71.5312 53.7344C70.625 54.5781 69.3086 55 67.582 55H61.9336ZM65.3789 47.582V52.1406H67.582C68.1992 52.1406 68.668 51.9492 68.9883 51.5664C69.3086 51.1836 69.4688 50.6406 69.4688 49.9375C69.4688 48.4062 68.9141 47.6211 67.8047 47.582H65.3789ZM65.3789 45.0742H67.1719C68.5234 45.0742 69.1992 44.375 69.1992 42.9766C69.1992 42.2031 69.043 41.6484 68.7305 41.3125C68.418 40.9766 67.9102 40.8086 67.207 40.8086H65.3789V45.0742ZM87.4219 48.0039C87.4219 50.293 86.8789 52.0703 85.793 53.3359C84.7148 54.6016 83.2148 55.2344 81.293 55.2344C79.3789 55.2344 77.875 54.6094 76.7812 53.3594C75.6875 52.1016 75.1328 50.3438 75.1172 48.0859V45.168C75.1172 42.8242 75.6602 40.9961 76.7461 39.6836C77.832 38.3633 79.3398 37.7031 81.2695 37.7031C83.168 37.7031 84.6641 38.3516 85.7578 39.6484C86.8516 40.9375 87.4062 42.75 87.4219 45.0859V48.0039ZM83.9648 45.1445C83.9648 43.6055 83.7461 42.4609 83.3086 41.7109C82.8711 40.9609 82.1914 40.5859 81.2695 40.5859C80.3555 40.5859 79.6797 40.9492 79.2422 41.6758C78.8047 42.3945 78.5781 43.4922 78.5625 44.9688V48.0039C78.5625 49.4961 78.7852 50.5977 79.2305 51.3086C79.6758 52.0117 80.3633 52.3633 81.293 52.3633C82.1914 52.3633 82.8594 52.0195 83.2969 51.332C83.7344 50.6367 83.957 49.5625 83.9648 48.1094V45.1445ZM89.8945 55V37.9375H94.4062C96.3984 37.9375 97.9844 38.5703 99.1641 39.8359C100.352 41.1016 100.957 42.8359 100.98 45.0391V47.8047C100.98 50.0469 100.387 51.8086 99.1992 53.0898C98.0195 54.3633 96.3906 55 94.3125 55H89.8945ZM93.3398 40.8086V52.1406H94.3711C95.5195 52.1406 96.3281 51.8398 96.7969 51.2383C97.2656 50.6289 97.5117 49.582 97.5352 48.0977V45.1328C97.5352 43.5391 97.3125 42.4297 96.8672 41.8047C96.4219 41.1719 95.6641 40.8398 94.5938 40.8086H93.3398ZM108.094 45.6016L110.66 37.9375H114.41L109.84 48.8125V55H106.348V48.8125L101.766 37.9375H105.516L108.094 45.6016ZM120.984 50.4062C120.984 49.6016 121.164 48.875 121.523 48.2266C121.891 47.5703 122.574 46.832 123.574 46.0117C123.145 45.332 122.805 44.6914 122.555 44.0898C122.305 43.4805 122.18 42.8516 122.18 42.2031C122.18 40.8672 122.551 39.7852 123.293 38.957C124.035 38.1211 125.027 37.7031 126.27 37.7031C127.387 37.7031 128.305 38.0898 129.023 38.8633C129.75 39.6289 130.113 40.5703 130.113 41.6875C130.113 43.1719 129.492 44.4102 128.25 45.4023L127.312 46.1641L129.504 49.2227C129.777 48.418 129.914 47.5508 129.914 46.6211H132.715C132.715 48.8164 132.285 50.582 131.426 51.918L133.629 55H129.867L129.234 54.1094C128.227 54.8594 127.062 55.2344 125.742 55.2344C124.305 55.2344 123.152 54.793 122.285 53.9102C121.418 53.0273 120.984 51.8594 120.984 50.4062ZM125.918 52.4922C126.535 52.4922 127.117 52.2891 127.664 51.8828L124.969 48.0742L124.898 48.1328C124.508 48.7344 124.312 49.4258 124.312 50.207C124.312 50.8633 124.465 51.4102 124.77 51.8477C125.082 52.2773 125.465 52.4922 125.918 52.4922ZM125.133 42.1445C125.133 42.6992 125.398 43.3789 125.93 44.1836L126.48 43.7617C126.809 43.5117 127.043 43.2539 127.184 42.9883C127.324 42.7148 127.395 42.3516 127.395 41.8984C127.395 41.4922 127.281 41.1523 127.055 40.8789C126.836 40.5977 126.57 40.457 126.258 40.457C125.914 40.457 125.641 40.6133 125.438 40.9258C125.234 41.2305 125.133 41.6367 125.133 42.1445ZM144.387 49V55H140.941V37.9375H146.754C148.441 37.9375 149.785 38.4609 150.785 39.5078C151.793 40.5547 152.297 41.9141 152.297 43.5859C152.297 45.2578 151.801 46.5781 150.809 47.5469C149.816 48.5156 148.441 49 146.684 49H144.387ZM144.387 46.1289H146.754C147.41 46.1289 147.918 45.9141 148.277 45.4844C148.637 45.0547 148.816 44.4297 148.816 43.6094C148.816 42.7578 148.633 42.082 148.266 41.582C147.898 41.0742 147.406 40.8164 146.789 40.8086H144.387V46.1289ZM160.664 51.5078H155.965L155.051 55H151.406L156.738 37.9375H159.891L165.258 55H161.578L160.664 51.5078ZM156.715 48.6367H159.902L158.309 42.5547L156.715 48.6367ZM170.461 55H167.016V37.9375H170.461V55ZM185.285 55H181.84L176.801 43.8086V55H173.355V37.9375H176.801L181.852 49.1406V37.9375H185.285V55ZM198.75 40.8086H194.531V55H191.074V40.8086H186.926V37.9375H198.75V40.8086Z" fill="black"/>
<rect x="22" y="58" width="153" height="23" fill="#FFE600" fill-opacity="0.56"/>
<path d="M33.207 71.2637C33.1354 72.8848 32.6797 74.112 31.8398 74.9453C31 75.7786 29.8151 76.1953 28.2852 76.1953C26.6771 76.1953 25.4434 75.668 24.584 74.6133C23.7311 73.5521 23.3047 72.0417 23.3047 70.082V67.6895C23.3047 65.7363 23.7474 64.2324 24.6328 63.1777C25.5182 62.1165 26.7487 61.5859 28.3242 61.5859C29.8737 61.5859 31.0488 62.0189 31.8496 62.8848C32.6569 63.7507 33.1159 64.9941 33.2266 66.6152H30.3457C30.3197 65.6126 30.1634 64.9225 29.877 64.5449C29.597 64.1608 29.0794 63.9688 28.3242 63.9688C27.556 63.9688 27.0124 64.2389 26.6934 64.7793C26.3743 65.3132 26.2051 66.1953 26.1855 67.4258V70.1113C26.1855 71.5241 26.3418 72.4941 26.6543 73.0215C26.9733 73.5488 27.5169 73.8125 28.2852 73.8125C29.0404 73.8125 29.5612 73.6302 29.8477 73.2656C30.1341 72.8945 30.2969 72.2272 30.3359 71.2637H33.207ZM44.9844 70.1699C44.9844 72.0775 44.5319 73.5586 43.627 74.6133C42.7285 75.668 41.4785 76.1953 39.877 76.1953C38.2819 76.1953 37.0286 75.6745 36.1172 74.6328C35.2057 73.5846 34.7435 72.1198 34.7305 70.2383V67.8066C34.7305 65.8535 35.1829 64.3301 36.0879 63.2363C36.9928 62.1361 38.2493 61.5859 39.8574 61.5859C41.4395 61.5859 42.6862 62.1263 43.5977 63.207C44.5091 64.2812 44.9714 65.7917 44.9844 67.7383V70.1699ZM42.1035 67.7871C42.1035 66.5046 41.9212 65.5508 41.5566 64.9258C41.1921 64.3008 40.6257 63.9883 39.8574 63.9883C39.0957 63.9883 38.5326 64.291 38.168 64.8965C37.8034 65.4954 37.6146 66.4102 37.6016 67.6406V70.1699C37.6016 71.4134 37.7871 72.3314 38.1582 72.9238C38.5293 73.5098 39.1022 73.8027 39.877 73.8027C40.6257 73.8027 41.1823 73.5163 41.5469 72.9434C41.9115 72.3639 42.097 71.4688 42.1035 70.2578V67.7871ZM49.916 73.6172H54.9551V76H47.0449V61.7812H49.916V73.6172ZM59.4863 73.6172H64.5254V76H56.6152V61.7812H59.4863V73.6172ZM69.1836 76H66.3125V61.7812H69.1836V76ZM77.6016 72.2695C77.6016 71.6901 77.4518 71.2539 77.1523 70.9609C76.8594 70.6615 76.3223 70.3522 75.541 70.0332C74.1152 69.4928 73.0898 68.8613 72.4648 68.1387C71.8398 67.4095 71.5273 66.5501 71.5273 65.5605C71.5273 64.3626 71.9505 63.4023 72.7969 62.6797C73.6497 61.9505 74.7305 61.5859 76.0391 61.5859C76.9115 61.5859 77.6895 61.7715 78.373 62.1426C79.0566 62.5072 79.5807 63.0247 79.9453 63.6953C80.3164 64.3659 80.502 65.1276 80.502 65.9805H77.6406C77.6406 65.3164 77.4974 64.8118 77.2109 64.4668C76.931 64.1152 76.5241 63.9395 75.9902 63.9395C75.4889 63.9395 75.0983 64.0892 74.8184 64.3887C74.5384 64.6816 74.3984 65.0788 74.3984 65.5801C74.3984 65.9707 74.5547 66.3255 74.8672 66.6445C75.1797 66.957 75.7331 67.2826 76.5273 67.6211C77.9141 68.1224 78.9199 68.7376 79.5449 69.4668C80.1764 70.196 80.4922 71.1237 80.4922 72.25C80.4922 73.487 80.0983 74.4538 79.3105 75.1504C78.5228 75.847 77.4518 76.1953 76.0977 76.1953C75.1797 76.1953 74.3431 76.0065 73.5879 75.6289C72.8327 75.2513 72.2402 74.7109 71.8105 74.0078C71.3874 73.3047 71.1758 72.4746 71.1758 71.5176H74.0566C74.0566 72.3379 74.2161 72.9336 74.5352 73.3047C74.8542 73.6758 75.375 73.8613 76.0977 73.8613C77.1003 73.8613 77.6016 73.3307 77.6016 72.2695ZM85.3945 76H82.5234V61.7812H85.3945V76ZM97.8164 70.1699C97.8164 72.0775 97.3639 73.5586 96.459 74.6133C95.5605 75.668 94.3105 76.1953 92.709 76.1953C91.1139 76.1953 89.8607 75.6745 88.9492 74.6328C88.0378 73.5846 87.5755 72.1198 87.5625 70.2383V67.8066C87.5625 65.8535 88.015 64.3301 88.9199 63.2363C89.8249 62.1361 91.0814 61.5859 92.6895 61.5859C94.2715 61.5859 95.5182 62.1263 96.4297 63.207C97.3411 64.2812 97.8034 65.7917 97.8164 67.7383V70.1699ZM94.9355 67.7871C94.9355 66.5046 94.7533 65.5508 94.3887 64.9258C94.0241 64.3008 93.4577 63.9883 92.6895 63.9883C91.9277 63.9883 91.3646 64.291 91 64.8965C90.6354 65.4954 90.4466 66.4102 90.4336 67.6406V70.1699C90.4336 71.4134 90.6191 72.3314 90.9902 72.9238C91.3613 73.5098 91.9342 73.8027 92.709 73.8027C93.4577 73.8027 94.0143 73.5163 94.3789 72.9434C94.7435 72.3639 94.929 71.4688 94.9355 70.2578V67.7871ZM109.818 76H106.947L102.748 66.6738V76H99.877V61.7812H102.748L106.957 71.1172V61.7812H109.818V76ZM121.039 70.8047H119.613V76H116.742V61.7812H121.322C122.761 61.7812 123.871 62.1556 124.652 62.9043C125.44 63.6465 125.834 64.7044 125.834 66.0781C125.834 67.9661 125.147 69.2878 123.773 70.043L126.264 75.8633V76H123.178L121.039 70.8047ZM119.613 68.4121H121.244C121.817 68.4121 122.247 68.2233 122.533 67.8457C122.82 67.4616 122.963 66.9505 122.963 66.3125C122.963 64.8867 122.406 64.1738 121.293 64.1738H119.613V68.4121ZM135.15 69.8477H130.678V73.6172H135.971V76H127.807V61.7812H135.951V64.1738H130.678V67.5332H135.15V69.8477ZM140.502 71V76H137.631V61.7812H142.475C143.881 61.7812 145.001 62.2174 145.834 63.0898C146.674 63.9622 147.094 65.0951 147.094 66.4883C147.094 67.8815 146.68 68.9818 145.854 69.7891C145.027 70.5964 143.881 71 142.416 71H140.502ZM140.502 68.6074H142.475C143.021 68.6074 143.445 68.4284 143.744 68.0703C144.044 67.7122 144.193 67.1914 144.193 66.5078C144.193 65.7982 144.04 65.235 143.734 64.8184C143.428 64.3952 143.018 64.1803 142.504 64.1738H140.502V68.6074ZM154.066 73.0898H150.15L149.389 76H146.352L150.795 61.7812H153.422L157.895 76H154.828L154.066 73.0898ZM150.775 70.6973H153.432L152.104 65.6289L150.775 70.6973ZM162.23 76H159.359V61.7812H162.23V76ZM168.949 70.8047H167.523V76H164.652V61.7812H169.232C170.671 61.7812 171.781 62.1556 172.562 62.9043C173.35 63.6465 173.744 64.7044 173.744 66.0781C173.744 67.9661 173.057 69.2878 171.684 70.043L174.174 75.8633V76H171.088L168.949 70.8047ZM167.523 68.4121H169.154C169.727 68.4121 170.157 68.2233 170.443 67.8457C170.73 67.4616 170.873 66.9505 170.873 66.3125C170.873 64.8867 170.316 64.1738 169.203 64.1738H167.523V68.4121Z" fill="#2C43BA"/>
</svg>
