<svg width="207" height="81" viewBox="0 0 207 81" fill="none" xmlns="http://www.w3.org/2000/svg">
<path d="M23.8066 7.40625L28.6406 25.916L33.457 7.40625H40.207V33H35.0215V26.0742L35.4961 15.4043L30.3809 33H26.8652L21.75 15.4043L22.2246 26.0742V33H17.0566V7.40625H23.8066Z" fill="#FF4545"/>
<path d="M53.8457 33C53.7051 32.707 53.5645 32.2148 53.4238 31.5234C52.5332 32.7422 51.3262 33.3516 49.8027 33.3516C48.209 33.3516 46.8848 32.8242 45.8301 31.7695C44.7871 30.7148 44.2656 29.3496 44.2656 27.6738C44.2656 25.6816 44.8984 24.1406 46.1641 23.0508C47.4414 21.9609 49.2754 21.4043 51.666 21.3809H53.1777V19.8516C53.1777 18.9961 53.0312 18.3926 52.7383 18.041C52.4453 17.6895 52.0176 17.5137 51.4551 17.5137C50.2129 17.5137 49.5918 18.2402 49.5918 19.6934H44.6172C44.6172 17.9355 45.2734 16.4883 46.5859 15.3516C47.9102 14.2031 49.5801 13.6289 51.5957 13.6289C53.6816 13.6289 55.293 14.1738 56.4297 15.2637C57.5781 16.3418 58.1523 17.8887 58.1523 19.9043V28.8516C58.1758 30.4922 58.4102 31.7754 58.8555 32.7012V33H53.8457ZM50.9102 29.4492C51.4609 29.4492 51.9297 29.3379 52.3164 29.1152C52.7031 28.8926 52.9902 28.6289 53.1777 28.3242V24.3691H51.9824C51.1387 24.3691 50.4707 24.6387 49.9785 25.1777C49.498 25.7168 49.2578 26.4375 49.2578 27.3398C49.2578 28.7461 49.8086 29.4492 50.9102 29.4492ZM66.9766 33H61.9844V6H66.9766V33ZM70.1582 22.9102C70.1582 19.793 70.6855 17.4668 71.7402 15.9316C72.7949 14.3965 74.3301 13.6289 76.3457 13.6289C77.8105 13.6289 79.0293 14.2617 80.002 15.5273V6H85.0117V33H80.4941L80.2656 31.0664C79.2461 32.5898 77.9336 33.3516 76.3281 33.3516C74.3359 33.3516 72.8125 32.5898 71.7578 31.0664C70.7148 29.543 70.1816 27.3047 70.1582 24.3516V22.9102ZM75.1504 24.1582C75.1504 26.0332 75.3496 27.3457 75.748 28.0957C76.1465 28.834 76.8203 29.2031 77.7695 29.2031C78.7539 29.2031 79.498 28.7637 80.002 27.8848V19.2012C79.5098 18.2637 78.7715 17.7949 77.7871 17.7949C76.873 17.7949 76.2051 18.1641 75.7832 18.9023C75.3613 19.6406 75.1504 20.9531 75.1504 22.8398V24.1582ZM88.1055 22.875C88.1055 19.9922 88.7852 17.7305 90.1445 16.0898C91.5039 14.4492 93.3848 13.6289 95.7871 13.6289C98.2129 13.6289 100.105 14.4492 101.465 16.0898C102.824 17.7305 103.504 20.0039 103.504 22.9102V24.123C103.504 27.0176 102.83 29.2793 101.482 30.9082C100.135 32.5371 98.248 33.3516 95.8223 33.3516C93.3848 33.3516 91.4863 32.5371 90.127 30.9082C88.7793 29.2676 88.1055 26.9941 88.1055 24.0879V22.875ZM93.0977 24.123C93.0977 27.5215 94.0059 29.2207 95.8223 29.2207C97.498 29.2207 98.4004 27.8027 98.5293 24.9668L98.5469 22.875C98.5469 21.1406 98.3066 19.8574 97.8262 19.0254C97.3457 18.1816 96.666 17.7598 95.7871 17.7598C94.9434 17.7598 94.2812 18.1816 93.8008 19.0254C93.332 19.8574 93.0977 21.1406 93.0977 22.875V24.123ZM111.168 13.9805L111.309 15.8613C112.434 14.373 113.904 13.6289 115.721 13.6289C118.99 13.6289 120.672 15.9199 120.766 20.502V33H115.773V20.8711C115.773 19.793 115.609 19.0137 115.281 18.5332C114.965 18.041 114.402 17.7949 113.594 17.7949C112.691 17.7949 111.988 18.2578 111.484 19.1836V33H106.492V13.9805H111.168ZM133.369 33C133.229 32.707 133.088 32.2148 132.947 31.5234C132.057 32.7422 130.85 33.3516 129.326 33.3516C127.732 33.3516 126.408 32.8242 125.354 31.7695C124.311 30.7148 123.789 29.3496 123.789 27.6738C123.789 25.6816 124.422 24.1406 125.688 23.0508C126.965 21.9609 128.799 21.4043 131.189 21.3809H132.701V19.8516C132.701 18.9961 132.555 18.3926 132.262 18.041C131.969 17.6895 131.541 17.5137 130.979 17.5137C129.736 17.5137 129.115 18.2402 129.115 19.6934H124.141C124.141 17.9355 124.797 16.4883 126.109 15.3516C127.434 14.2031 129.104 13.6289 131.119 13.6289C133.205 13.6289 134.816 14.1738 135.953 15.2637C137.102 16.3418 137.676 17.8887 137.676 19.9043V28.8516C137.699 30.4922 137.934 31.7754 138.379 32.7012V33H133.369ZM130.434 29.4492C130.984 29.4492 131.453 29.3379 131.84 29.1152C132.227 28.8926 132.514 28.6289 132.701 28.3242V24.3691H131.506C130.662 24.3691 129.994 24.6387 129.502 25.1777C129.021 25.7168 128.781 26.4375 128.781 27.3398C128.781 28.7461 129.332 29.4492 130.434 29.4492ZM140.611 22.9102C140.611 19.793 141.139 17.4668 142.193 15.9316C143.248 14.3965 144.783 13.6289 146.799 13.6289C148.264 13.6289 149.482 14.2617 150.455 15.5273V6H155.465V33H150.947L150.719 31.0664C149.699 32.5898 148.387 33.3516 146.781 33.3516C144.789 33.3516 143.266 32.5898 142.211 31.0664C141.168 29.543 140.635 27.3047 140.611 24.3516V22.9102ZM145.604 24.1582C145.604 26.0332 145.803 27.3457 146.201 28.0957C146.6 28.834 147.273 29.2031 148.223 29.2031C149.207 29.2031 149.951 28.7637 150.455 27.8848V19.2012C149.963 18.2637 149.225 17.7949 148.24 17.7949C147.326 17.7949 146.658 18.1641 146.236 18.9023C145.814 19.6406 145.604 20.9531 145.604 22.8398V24.1582ZM158.559 22.875C158.559 19.9922 159.238 17.7305 160.598 16.0898C161.957 14.4492 163.838 13.6289 166.24 13.6289C168.666 13.6289 170.559 14.4492 171.918 16.0898C173.277 17.7305 173.957 20.0039 173.957 22.9102V24.123C173.957 27.0176 173.283 29.2793 171.936 30.9082C170.588 32.5371 168.701 33.3516 166.275 33.3516C163.838 33.3516 161.939 32.5371 160.58 30.9082C159.232 29.2676 158.559 26.9941 158.559 24.0879V22.875ZM163.551 24.123C163.551 27.5215 164.459 29.2207 166.275 29.2207C167.951 29.2207 168.854 27.8027 168.982 24.9668L169 22.875C169 21.1406 168.76 19.8574 168.279 19.0254C167.799 18.1816 167.119 17.7598 166.24 17.7598C165.396 17.7598 164.734 18.1816 164.254 19.0254C163.785 19.8574 163.551 21.1406 163.551 22.875V24.123ZM176.752 15.2637L174.467 13.875C175.299 12.2227 175.732 10.6172 175.768 9.05859V6H179.67V8.77734C179.658 9.84375 179.377 10.998 178.826 12.2402C178.287 13.4707 177.596 14.4785 176.752 15.2637ZM187.527 27.9023C187.527 27.4805 187.322 27.0938 186.912 26.7422C186.514 26.3789 185.617 25.8926 184.223 25.2832C182.172 24.4512 180.76 23.5898 179.986 22.6992C179.225 21.8086 178.844 20.7012 178.844 19.377C178.844 17.7129 179.441 16.3418 180.637 15.2637C181.844 14.1738 183.438 13.6289 185.418 13.6289C187.504 13.6289 189.174 14.168 190.428 15.2461C191.682 16.3242 192.309 17.7715 192.309 19.5879H187.334C187.334 18.041 186.689 17.2676 185.4 17.2676C184.873 17.2676 184.439 17.4316 184.1 17.7598C183.76 18.0879 183.59 18.5449 183.59 19.1309C183.59 19.5527 183.777 19.9277 184.152 20.2559C184.527 20.5723 185.412 21.0293 186.807 21.627C188.834 22.377 190.264 23.2148 191.096 24.1406C191.939 25.0547 192.361 26.2441 192.361 27.709C192.361 29.4082 191.723 30.7734 190.445 31.8047C189.168 32.8359 187.492 33.3516 185.418 33.3516C184.023 33.3516 182.793 33.082 181.727 32.543C180.66 31.9922 179.822 31.2305 179.213 30.2578C178.615 29.2852 178.316 28.2363 178.316 27.1113H183.045C183.068 27.9785 183.268 28.6289 183.643 29.0625C184.029 29.4961 184.656 29.7129 185.523 29.7129C186.859 29.7129 187.527 29.1094 187.527 27.9023Z" fill="#FF4545"/>
<g filter="url(#filter0_d)">
<path d="M13.5156 51.5078H8.81641L7.90234 55H4.25781L9.58984 37.9375H12.7422L18.1094 55H14.4297L13.5156 51.5078ZM9.56641 48.6367H12.7539L11.1602 42.5547L9.56641 48.6367ZM30.6016 37.9375V49.75C30.5859 51.5234 30.0977 52.8828 29.1367 53.8281C28.1758 54.7656 26.7969 55.2344 25 55.2344C23.1719 55.2344 21.7734 54.7578 20.8047 53.8047C19.8438 52.8516 19.3633 51.4727 19.3633 49.668V37.9375H22.832V49.6797C22.832 50.6484 22.9883 51.3398 23.3008 51.7539C23.6133 52.168 24.1797 52.375 25 52.375C25.8203 52.375 26.3828 52.1719 26.6875 51.7656C26.9922 51.3516 27.1484 50.6758 27.1562 49.7383V37.9375H30.6016ZM44.2656 40.8086H40.0469V55H36.5898V40.8086H32.4414V37.9375H44.2656V40.8086ZM57.9297 48.0039C57.9297 50.293 57.3867 52.0703 56.3008 53.3359C55.2227 54.6016 53.7227 55.2344 51.8008 55.2344C49.8867 55.2344 48.3828 54.6094 47.2891 53.3594C46.1953 52.1016 45.6406 50.3438 45.625 48.0859V45.168C45.625 42.8242 46.168 40.9961 47.2539 39.6836C48.3398 38.3633 49.8477 37.7031 51.7773 37.7031C53.6758 37.7031 55.1719 38.3516 56.2656 39.6484C57.3594 40.9375 57.9141 42.75 57.9297 45.0859V48.0039ZM54.4727 45.1445C54.4727 43.6055 54.2539 42.4609 53.8164 41.7109C53.3789 40.9609 52.6992 40.5859 51.7773 40.5859C50.8633 40.5859 50.1875 40.9492 49.75 41.6758C49.3125 42.3945 49.0859 43.4922 49.0703 44.9688V48.0039C49.0703 49.4961 49.293 50.5977 49.7383 51.3086C50.1836 52.0117 50.8711 52.3633 51.8008 52.3633C52.6992 52.3633 53.3672 52.0195 53.8047 51.332C54.2422 50.6367 54.4648 49.5625 54.4727 48.1094V45.1445ZM65.9336 55V37.9375H71.207C72.9883 37.9375 74.3398 38.3359 75.2617 39.1328C76.1914 39.9219 76.6562 41.082 76.6562 42.6133C76.6562 43.4805 76.4648 44.2266 76.082 44.8516C75.6992 45.4766 75.1758 45.9336 74.5117 46.2227C75.2773 46.4414 75.8672 46.8828 76.2812 47.5469C76.6953 48.2031 76.9023 49.0156 76.9023 49.9844C76.9023 51.6406 76.4453 52.8906 75.5312 53.7344C74.625 54.5781 73.3086 55 71.582 55H65.9336ZM69.3789 47.582V52.1406H71.582C72.1992 52.1406 72.668 51.9492 72.9883 51.5664C73.3086 51.1836 73.4688 50.6406 73.4688 49.9375C73.4688 48.4062 72.9141 47.6211 71.8047 47.582H69.3789ZM69.3789 45.0742H71.1719C72.5234 45.0742 73.1992 44.375 73.1992 42.9766C73.1992 42.2031 73.043 41.6484 72.7305 41.3125C72.418 40.9766 71.9102 40.8086 71.207 40.8086H69.3789V45.0742ZM91.4219 48.0039C91.4219 50.293 90.8789 52.0703 89.793 53.3359C88.7148 54.6016 87.2148 55.2344 85.293 55.2344C83.3789 55.2344 81.875 54.6094 80.7812 53.3594C79.6875 52.1016 79.1328 50.3438 79.1172 48.0859V45.168C79.1172 42.8242 79.6602 40.9961 80.7461 39.6836C81.832 38.3633 83.3398 37.7031 85.2695 37.7031C87.168 37.7031 88.6641 38.3516 89.7578 39.6484C90.8516 40.9375 91.4062 42.75 91.4219 45.0859V48.0039ZM87.9648 45.1445C87.9648 43.6055 87.7461 42.4609 87.3086 41.7109C86.8711 40.9609 86.1914 40.5859 85.2695 40.5859C84.3555 40.5859 83.6797 40.9492 83.2422 41.6758C82.8047 42.3945 82.5781 43.4922 82.5625 44.9688V48.0039C82.5625 49.4961 82.7852 50.5977 83.2305 51.3086C83.6758 52.0117 84.3633 52.3633 85.293 52.3633C86.1914 52.3633 86.8594 52.0195 87.2969 51.332C87.7344 50.6367 87.957 49.5625 87.9648 48.1094V45.1445ZM93.8945 55V37.9375H98.4062C100.398 37.9375 101.984 38.5703 103.164 39.8359C104.352 41.1016 104.957 42.8359 104.98 45.0391V47.8047C104.98 50.0469 104.387 51.8086 103.199 53.0898C102.02 54.3633 100.391 55 98.3125 55H93.8945ZM97.3398 40.8086V52.1406H98.3711C99.5195 52.1406 100.328 51.8398 100.797 51.2383C101.266 50.6289 101.512 49.582 101.535 48.0977V45.1328C101.535 43.5391 101.312 42.4297 100.867 41.8047C100.422 41.1719 99.6641 40.8398 98.5938 40.8086H97.3398ZM112.094 45.6016L114.66 37.9375H118.41L113.84 48.8125V55H110.348V48.8125L105.766 37.9375H109.516L112.094 45.6016ZM124.984 50.4062C124.984 49.6016 125.164 48.875 125.523 48.2266C125.891 47.5703 126.574 46.832 127.574 46.0117C127.145 45.332 126.805 44.6914 126.555 44.0898C126.305 43.4805 126.18 42.8516 126.18 42.2031C126.18 40.8672 126.551 39.7852 127.293 38.957C128.035 38.1211 129.027 37.7031 130.27 37.7031C131.387 37.7031 132.305 38.0898 133.023 38.8633C133.75 39.6289 134.113 40.5703 134.113 41.6875C134.113 43.1719 133.492 44.4102 132.25 45.4023L131.312 46.1641L133.504 49.2227C133.777 48.418 133.914 47.5508 133.914 46.6211H136.715C136.715 48.8164 136.285 50.582 135.426 51.918L137.629 55H133.867L133.234 54.1094C132.227 54.8594 131.062 55.2344 129.742 55.2344C128.305 55.2344 127.152 54.793 126.285 53.9102C125.418 53.0273 124.984 51.8594 124.984 50.4062ZM129.918 52.4922C130.535 52.4922 131.117 52.2891 131.664 51.8828L128.969 48.0742L128.898 48.1328C128.508 48.7344 128.312 49.4258 128.312 50.207C128.312 50.8633 128.465 51.4102 128.77 51.8477C129.082 52.2773 129.465 52.4922 129.918 52.4922ZM129.133 42.1445C129.133 42.6992 129.398 43.3789 129.93 44.1836L130.48 43.7617C130.809 43.5117 131.043 43.2539 131.184 42.9883C131.324 42.7148 131.395 42.3516 131.395 41.8984C131.395 41.4922 131.281 41.1523 131.055 40.8789C130.836 40.5977 130.57 40.457 130.258 40.457C129.914 40.457 129.641 40.6133 129.438 40.9258C129.234 41.2305 129.133 41.6367 129.133 42.1445ZM148.387 49V55H144.941V37.9375H150.754C152.441 37.9375 153.785 38.4609 154.785 39.5078C155.793 40.5547 156.297 41.9141 156.297 43.5859C156.297 45.2578 155.801 46.5781 154.809 47.5469C153.816 48.5156 152.441 49 150.684 49H148.387ZM148.387 46.1289H150.754C151.41 46.1289 151.918 45.9141 152.277 45.4844C152.637 45.0547 152.816 44.4297 152.816 43.6094C152.816 42.7578 152.633 42.082 152.266 41.582C151.898 41.0742 151.406 40.8164 150.789 40.8086H148.387V46.1289ZM164.664 51.5078H159.965L159.051 55H155.406L160.738 37.9375H163.891L169.258 55H165.578L164.664 51.5078ZM160.715 48.6367H163.902L162.309 42.5547L160.715 48.6367ZM174.461 55H171.016V37.9375H174.461V55ZM189.285 55H185.84L180.801 43.8086V55H177.355V37.9375H180.801L185.852 49.1406V37.9375H189.285V55ZM202.75 40.8086H198.531V55H195.074V40.8086H190.926V37.9375H202.75V40.8086Z" fill="black"/>
</g>
<rect x="26" y="58" width="153" height="23" fill="#FFE600" fill-opacity="0.56"/>
<path d="M37.207 71.2637C37.1354 72.8848 36.6797 74.112 35.8398 74.9453C35 75.7786 33.8151 76.1953 32.2852 76.1953C30.6771 76.1953 29.4434 75.668 28.584 74.6133C27.7311 73.5521 27.3047 72.0417 27.3047 70.082V67.6895C27.3047 65.7363 27.7474 64.2324 28.6328 63.1777C29.5182 62.1165 30.7487 61.5859 32.3242 61.5859C33.8737 61.5859 35.0488 62.0189 35.8496 62.8848C36.6569 63.7507 37.1159 64.9941 37.2266 66.6152H34.3457C34.3197 65.6126 34.1634 64.9225 33.877 64.5449C33.597 64.1608 33.0794 63.9688 32.3242 63.9688C31.556 63.9688 31.0124 64.2389 30.6934 64.7793C30.3743 65.3132 30.2051 66.1953 30.1855 67.4258V70.1113C30.1855 71.5241 30.3418 72.4941 30.6543 73.0215C30.9733 73.5488 31.5169 73.8125 32.2852 73.8125C33.0404 73.8125 33.5612 73.6302 33.8477 73.2656C34.1341 72.8945 34.2969 72.2272 34.3359 71.2637H37.207ZM48.9844 70.1699C48.9844 72.0775 48.5319 73.5586 47.627 74.6133C46.7285 75.668 45.4785 76.1953 43.877 76.1953C42.2819 76.1953 41.0286 75.6745 40.1172 74.6328C39.2057 73.5846 38.7435 72.1198 38.7305 70.2383V67.8066C38.7305 65.8535 39.1829 64.3301 40.0879 63.2363C40.9928 62.1361 42.2493 61.5859 43.8574 61.5859C45.4395 61.5859 46.6862 62.1263 47.5977 63.207C48.5091 64.2812 48.9714 65.7917 48.9844 67.7383V70.1699ZM46.1035 67.7871C46.1035 66.5046 45.9212 65.5508 45.5566 64.9258C45.1921 64.3008 44.6257 63.9883 43.8574 63.9883C43.0957 63.9883 42.5326 64.291 42.168 64.8965C41.8034 65.4954 41.6146 66.4102 41.6016 67.6406V70.1699C41.6016 71.4134 41.7871 72.3314 42.1582 72.9238C42.5293 73.5098 43.1022 73.8027 43.877 73.8027C44.6257 73.8027 45.1823 73.5163 45.5469 72.9434C45.9115 72.3639 46.097 71.4688 46.1035 70.2578V67.7871ZM53.916 73.6172H58.9551V76H51.0449V61.7812H53.916V73.6172ZM63.4863 73.6172H68.5254V76H60.6152V61.7812H63.4863V73.6172ZM73.1836 76H70.3125V61.7812H73.1836V76ZM81.6016 72.2695C81.6016 71.6901 81.4518 71.2539 81.1523 70.9609C80.8594 70.6615 80.3223 70.3522 79.541 70.0332C78.1152 69.4928 77.0898 68.8613 76.4648 68.1387C75.8398 67.4095 75.5273 66.5501 75.5273 65.5605C75.5273 64.3626 75.9505 63.4023 76.7969 62.6797C77.6497 61.9505 78.7305 61.5859 80.0391 61.5859C80.9115 61.5859 81.6895 61.7715 82.373 62.1426C83.0566 62.5072 83.5807 63.0247 83.9453 63.6953C84.3164 64.3659 84.502 65.1276 84.502 65.9805H81.6406C81.6406 65.3164 81.4974 64.8118 81.2109 64.4668C80.931 64.1152 80.5241 63.9395 79.9902 63.9395C79.4889 63.9395 79.0983 64.0892 78.8184 64.3887C78.5384 64.6816 78.3984 65.0788 78.3984 65.5801C78.3984 65.9707 78.5547 66.3255 78.8672 66.6445C79.1797 66.957 79.7331 67.2826 80.5273 67.6211C81.9141 68.1224 82.9199 68.7376 83.5449 69.4668C84.1764 70.196 84.4922 71.1237 84.4922 72.25C84.4922 73.487 84.0983 74.4538 83.3105 75.1504C82.5228 75.847 81.4518 76.1953 80.0977 76.1953C79.1797 76.1953 78.3431 76.0065 77.5879 75.6289C76.8327 75.2513 76.2402 74.7109 75.8105 74.0078C75.3874 73.3047 75.1758 72.4746 75.1758 71.5176H78.0566C78.0566 72.3379 78.2161 72.9336 78.5352 73.3047C78.8542 73.6758 79.375 73.8613 80.0977 73.8613C81.1003 73.8613 81.6016 73.3307 81.6016 72.2695ZM89.3945 76H86.5234V61.7812H89.3945V76ZM101.816 70.1699C101.816 72.0775 101.364 73.5586 100.459 74.6133C99.5605 75.668 98.3105 76.1953 96.709 76.1953C95.1139 76.1953 93.8607 75.6745 92.9492 74.6328C92.0378 73.5846 91.5755 72.1198 91.5625 70.2383V67.8066C91.5625 65.8535 92.015 64.3301 92.9199 63.2363C93.8249 62.1361 95.0814 61.5859 96.6895 61.5859C98.2715 61.5859 99.5182 62.1263 100.43 63.207C101.341 64.2812 101.803 65.7917 101.816 67.7383V70.1699ZM98.9355 67.7871C98.9355 66.5046 98.7533 65.5508 98.3887 64.9258C98.0241 64.3008 97.4577 63.9883 96.6895 63.9883C95.9277 63.9883 95.3646 64.291 95 64.8965C94.6354 65.4954 94.4466 66.4102 94.4336 67.6406V70.1699C94.4336 71.4134 94.6191 72.3314 94.9902 72.9238C95.3613 73.5098 95.9342 73.8027 96.709 73.8027C97.4577 73.8027 98.0143 73.5163 98.3789 72.9434C98.7435 72.3639 98.929 71.4688 98.9355 70.2578V67.7871ZM113.818 76H110.947L106.748 66.6738V76H103.877V61.7812H106.748L110.957 71.1172V61.7812H113.818V76ZM125.039 70.8047H123.613V76H120.742V61.7812H125.322C126.761 61.7812 127.871 62.1556 128.652 62.9043C129.44 63.6465 129.834 64.7044 129.834 66.0781C129.834 67.9661 129.147 69.2878 127.773 70.043L130.264 75.8633V76H127.178L125.039 70.8047ZM123.613 68.4121H125.244C125.817 68.4121 126.247 68.2233 126.533 67.8457C126.82 67.4616 126.963 66.9505 126.963 66.3125C126.963 64.8867 126.406 64.1738 125.293 64.1738H123.613V68.4121ZM139.15 69.8477H134.678V73.6172H139.971V76H131.807V61.7812H139.951V64.1738H134.678V67.5332H139.15V69.8477ZM144.502 71V76H141.631V61.7812H146.475C147.881 61.7812 149.001 62.2174 149.834 63.0898C150.674 63.9622 151.094 65.0951 151.094 66.4883C151.094 67.8815 150.68 68.9818 149.854 69.7891C149.027 70.5964 147.881 71 146.416 71H144.502ZM144.502 68.6074H146.475C147.021 68.6074 147.445 68.4284 147.744 68.0703C148.044 67.7122 148.193 67.1914 148.193 66.5078C148.193 65.7982 148.04 65.235 147.734 64.8184C147.428 64.3952 147.018 64.1803 146.504 64.1738H144.502V68.6074ZM158.066 73.0898H154.15L153.389 76H150.352L154.795 61.7812H157.422L161.895 76H158.828L158.066 73.0898ZM154.775 70.6973H157.432L156.104 65.6289L154.775 70.6973ZM166.23 76H163.359V61.7812H166.23V76ZM172.949 70.8047H171.523V76H168.652V61.7812H173.232C174.671 61.7812 175.781 62.1556 176.562 62.9043C177.35 63.6465 177.744 64.7044 177.744 66.0781C177.744 67.9661 177.057 69.2878 175.684 70.043L178.174 75.8633V76H175.088L172.949 70.8047ZM171.523 68.4121H173.154C173.727 68.4121 174.157 68.2233 174.443 67.8457C174.73 67.4616 174.873 66.9505 174.873 66.3125C174.873 64.8867 174.316 64.1738 173.203 64.1738H171.523V68.4121Z" fill="#2C43BA"/>
<defs>
<filter id="filter0_d" x="0.257812" y="37.7031" width="206.492" height="25.5312" filterUnits="userSpaceOnUse" color-interpolation-filters="sRGB">
<feFlood flood-opacity="0" result="BackgroundImageFix"/>
<feColorMatrix in="SourceAlpha" type="matrix" values="0 0 0 0 0 0 0 0 0 0 0 0 0 0 0 0 0 0 127 0" result="hardAlpha"/>
<feOffset dy="4"/>
<feGaussianBlur stdDeviation="2"/>
<feComposite in2="hardAlpha" operator="out"/>
<feColorMatrix type="matrix" values="0 0 0 0 0 0 0 0 0 0 0 0 0 0 0 0 0 0 0.25 0"/>
<feBlend mode="normal" in2="BackgroundImageFix" result="effect1_dropShadow"/>
<feBlend mode="normal" in="SourceGraphic" in2="effect1_dropShadow" result="shape"/>
</filter>
</defs>
</svg>
