<svg width="200" height="70" viewBox="0 0 200 70" fill="none" xmlns="http://www.w3.org/2000/svg">
<path d="M19.8066 7.40625L24.6406 25.916L29.457 7.40625H36.207V33H31.0215V26.0742L31.4961 15.4043L26.3809 33H22.8652L17.75 15.4043L18.2246 26.0742V33H13.0566V7.40625H19.8066Z" fill="#FF4545"/>
<path d="M49.8457 33C49.7051 32.707 49.5645 32.2148 49.4238 31.5234C48.5332 32.7422 47.3262 33.3516 45.8027 33.3516C44.209 33.3516 42.8848 32.8242 41.8301 31.7695C40.7871 30.7148 40.2656 29.3496 40.2656 27.6738C40.2656 25.6816 40.8984 24.1406 42.1641 23.0508C43.4414 21.9609 45.2754 21.4043 47.666 21.3809H49.1777V19.8516C49.1777 18.9961 49.0312 18.3926 48.7383 18.041C48.4453 17.6895 48.0176 17.5137 47.4551 17.5137C46.2129 17.5137 45.5918 18.2402 45.5918 19.6934H40.6172C40.6172 17.9355 41.2734 16.4883 42.5859 15.3516C43.9102 14.2031 45.5801 13.6289 47.5957 13.6289C49.6816 13.6289 51.293 14.1738 52.4297 15.2637C53.5781 16.3418 54.1523 17.8887 54.1523 19.9043V28.8516C54.1758 30.4922 54.4102 31.7754 54.8555 32.7012V33H49.8457ZM46.9102 29.4492C47.4609 29.4492 47.9297 29.3379 48.3164 29.1152C48.7031 28.8926 48.9902 28.6289 49.1777 28.3242V24.3691H47.9824C47.1387 24.3691 46.4707 24.6387 45.9785 25.1777C45.498 25.7168 45.2578 26.4375 45.2578 27.3398C45.2578 28.7461 45.8086 29.4492 46.9102 29.4492ZM62.9766 33H57.9844V6H62.9766V33ZM66.1582 22.9102C66.1582 19.793 66.6855 17.4668 67.7402 15.9316C68.7949 14.3965 70.3301 13.6289 72.3457 13.6289C73.8105 13.6289 75.0293 14.2617 76.002 15.5273V6H81.0117V33H76.4941L76.2656 31.0664C75.2461 32.5898 73.9336 33.3516 72.3281 33.3516C70.3359 33.3516 68.8125 32.5898 67.7578 31.0664C66.7148 29.543 66.1816 27.3047 66.1582 24.3516V22.9102ZM71.1504 24.1582C71.1504 26.0332 71.3496 27.3457 71.748 28.0957C72.1465 28.834 72.8203 29.2031 73.7695 29.2031C74.7539 29.2031 75.498 28.7637 76.002 27.8848V19.2012C75.5098 18.2637 74.7715 17.7949 73.7871 17.7949C72.873 17.7949 72.2051 18.1641 71.7832 18.9023C71.3613 19.6406 71.1504 20.9531 71.1504 22.8398V24.1582ZM84.1055 22.875C84.1055 19.9922 84.7852 17.7305 86.1445 16.0898C87.5039 14.4492 89.3848 13.6289 91.7871 13.6289C94.2129 13.6289 96.1055 14.4492 97.4648 16.0898C98.8242 17.7305 99.5039 20.0039 99.5039 22.9102V24.123C99.5039 27.0176 98.8301 29.2793 97.4824 30.9082C96.1348 32.5371 94.248 33.3516 91.8223 33.3516C89.3848 33.3516 87.4863 32.5371 86.127 30.9082C84.7793 29.2676 84.1055 26.9941 84.1055 24.0879V22.875ZM89.0977 24.123C89.0977 27.5215 90.0059 29.2207 91.8223 29.2207C93.498 29.2207 94.4004 27.8027 94.5293 24.9668L94.5469 22.875C94.5469 21.1406 94.3066 19.8574 93.8262 19.0254C93.3457 18.1816 92.666 17.7598 91.7871 17.7598C90.9434 17.7598 90.2812 18.1816 89.8008 19.0254C89.332 19.8574 89.0977 21.1406 89.0977 22.875V24.123ZM107.168 13.9805L107.309 15.8613C108.434 14.373 109.904 13.6289 111.721 13.6289C114.99 13.6289 116.672 15.9199 116.766 20.502V33H111.773V20.8711C111.773 19.793 111.609 19.0137 111.281 18.5332C110.965 18.041 110.402 17.7949 109.594 17.7949C108.691 17.7949 107.988 18.2578 107.484 19.1836V33H102.492V13.9805H107.168ZM129.369 33C129.229 32.707 129.088 32.2148 128.947 31.5234C128.057 32.7422 126.85 33.3516 125.326 33.3516C123.732 33.3516 122.408 32.8242 121.354 31.7695C120.311 30.7148 119.789 29.3496 119.789 27.6738C119.789 25.6816 120.422 24.1406 121.688 23.0508C122.965 21.9609 124.799 21.4043 127.189 21.3809H128.701V19.8516C128.701 18.9961 128.555 18.3926 128.262 18.041C127.969 17.6895 127.541 17.5137 126.979 17.5137C125.736 17.5137 125.115 18.2402 125.115 19.6934H120.141C120.141 17.9355 120.797 16.4883 122.109 15.3516C123.434 14.2031 125.104 13.6289 127.119 13.6289C129.205 13.6289 130.816 14.1738 131.953 15.2637C133.102 16.3418 133.676 17.8887 133.676 19.9043V28.8516C133.699 30.4922 133.934 31.7754 134.379 32.7012V33H129.369ZM126.434 29.4492C126.984 29.4492 127.453 29.3379 127.84 29.1152C128.227 28.8926 128.514 28.6289 128.701 28.3242V24.3691H127.506C126.662 24.3691 125.994 24.6387 125.502 25.1777C125.021 25.7168 124.781 26.4375 124.781 27.3398C124.781 28.7461 125.332 29.4492 126.434 29.4492ZM136.611 22.9102C136.611 19.793 137.139 17.4668 138.193 15.9316C139.248 14.3965 140.783 13.6289 142.799 13.6289C144.264 13.6289 145.482 14.2617 146.455 15.5273V6H151.465V33H146.947L146.719 31.0664C145.699 32.5898 144.387 33.3516 142.781 33.3516C140.789 33.3516 139.266 32.5898 138.211 31.0664C137.168 29.543 136.635 27.3047 136.611 24.3516V22.9102ZM141.604 24.1582C141.604 26.0332 141.803 27.3457 142.201 28.0957C142.6 28.834 143.273 29.2031 144.223 29.2031C145.207 29.2031 145.951 28.7637 146.455 27.8848V19.2012C145.963 18.2637 145.225 17.7949 144.24 17.7949C143.326 17.7949 142.658 18.1641 142.236 18.9023C141.814 19.6406 141.604 20.9531 141.604 22.8398V24.1582ZM154.559 22.875C154.559 19.9922 155.238 17.7305 156.598 16.0898C157.957 14.4492 159.838 13.6289 162.24 13.6289C164.666 13.6289 166.559 14.4492 167.918 16.0898C169.277 17.7305 169.957 20.0039 169.957 22.9102V24.123C169.957 27.0176 169.283 29.2793 167.936 30.9082C166.588 32.5371 164.701 33.3516 162.275 33.3516C159.838 33.3516 157.939 32.5371 156.58 30.9082C155.232 29.2676 154.559 26.9941 154.559 24.0879V22.875ZM159.551 24.123C159.551 27.5215 160.459 29.2207 162.275 29.2207C163.951 29.2207 164.854 27.8027 164.982 24.9668L165 22.875C165 21.1406 164.76 19.8574 164.279 19.0254C163.799 18.1816 163.119 17.7598 162.24 17.7598C161.396 17.7598 160.734 18.1816 160.254 19.0254C159.785 19.8574 159.551 21.1406 159.551 22.875V24.123ZM172.752 15.2637L170.467 13.875C171.299 12.2227 171.732 10.6172 171.768 9.05859V6H175.67V8.77734C175.658 9.84375 175.377 10.998 174.826 12.2402C174.287 13.4707 173.596 14.4785 172.752 15.2637ZM183.527 27.9023C183.527 27.4805 183.322 27.0938 182.912 26.7422C182.514 26.3789 181.617 25.8926 180.223 25.2832C178.172 24.4512 176.76 23.5898 175.986 22.6992C175.225 21.8086 174.844 20.7012 174.844 19.377C174.844 17.7129 175.441 16.3418 176.637 15.2637C177.844 14.1738 179.438 13.6289 181.418 13.6289C183.504 13.6289 185.174 14.168 186.428 15.2461C187.682 16.3242 188.309 17.7715 188.309 19.5879H183.334C183.334 18.041 182.689 17.2676 181.4 17.2676C180.873 17.2676 180.439 17.4316 180.1 17.7598C179.76 18.0879 179.59 18.5449 179.59 19.1309C179.59 19.5527 179.777 19.9277 180.152 20.2559C180.527 20.5723 181.412 21.0293 182.807 21.627C184.834 22.377 186.264 23.2148 187.096 24.1406C187.939 25.0547 188.361 26.2441 188.361 27.709C188.361 29.4082 187.723 30.7734 186.445 31.8047C185.168 32.8359 183.492 33.3516 181.418 33.3516C180.023 33.3516 178.793 33.082 177.727 32.543C176.66 31.9922 175.822 31.2305 175.213 30.2578C174.615 29.2852 174.316 28.2363 174.316 27.1113H179.045C179.068 27.9785 179.268 28.6289 179.643 29.0625C180.029 29.4961 180.656 29.7129 181.523 29.7129C182.859 29.7129 183.527 29.1094 183.527 27.9023Z" fill="#FF4545"/>
<path d="M9.51562 60.5078H4.81641L3.90234 64H0.257812L5.58984 46.9375H8.74219L14.1094 64H10.4297L9.51562 60.5078ZM5.56641 57.6367H8.75391L7.16016 51.5547L5.56641 57.6367ZM26.6016 46.9375V58.75C26.5859 60.5234 26.0977 61.8828 25.1367 62.8281C24.1758 63.7656 22.7969 64.2344 21 64.2344C19.1719 64.2344 17.7734 63.7578 16.8047 62.8047C15.8438 61.8516 15.3633 60.4727 15.3633 58.668V46.9375H18.832V58.6797C18.832 59.6484 18.9883 60.3398 19.3008 60.7539C19.6133 61.168 20.1797 61.375 21 61.375C21.8203 61.375 22.3828 61.1719 22.6875 60.7656C22.9922 60.3516 23.1484 59.6758 23.1562 58.7383V46.9375H26.6016ZM40.2656 49.8086H36.0469V64H32.5898V49.8086H28.4414V46.9375H40.2656V49.8086ZM53.9297 57.0039C53.9297 59.293 53.3867 61.0703 52.3008 62.3359C51.2227 63.6016 49.7227 64.2344 47.8008 64.2344C45.8867 64.2344 44.3828 63.6094 43.2891 62.3594C42.1953 61.1016 41.6406 59.3438 41.625 57.0859V54.168C41.625 51.8242 42.168 49.9961 43.2539 48.6836C44.3398 47.3633 45.8477 46.7031 47.7773 46.7031C49.6758 46.7031 51.1719 47.3516 52.2656 48.6484C53.3594 49.9375 53.9141 51.75 53.9297 54.0859V57.0039ZM50.4727 54.1445C50.4727 52.6055 50.2539 51.4609 49.8164 50.7109C49.3789 49.9609 48.6992 49.5859 47.7773 49.5859C46.8633 49.5859 46.1875 49.9492 45.75 50.6758C45.3125 51.3945 45.0859 52.4922 45.0703 53.9688V57.0039C45.0703 58.4961 45.293 59.5977 45.7383 60.3086C46.1836 61.0117 46.8711 61.3633 47.8008 61.3633C48.6992 61.3633 49.3672 61.0195 49.8047 60.332C50.2422 59.6367 50.4648 58.5625 50.4727 57.1094V54.1445ZM61.9336 64V46.9375H67.207C68.9883 46.9375 70.3398 47.3359 71.2617 48.1328C72.1914 48.9219 72.6562 50.082 72.6562 51.6133C72.6562 52.4805 72.4648 53.2266 72.082 53.8516C71.6992 54.4766 71.1758 54.9336 70.5117 55.2227C71.2773 55.4414 71.8672 55.8828 72.2812 56.5469C72.6953 57.2031 72.9023 58.0156 72.9023 58.9844C72.9023 60.6406 72.4453 61.8906 71.5312 62.7344C70.625 63.5781 69.3086 64 67.582 64H61.9336ZM65.3789 56.582V61.1406H67.582C68.1992 61.1406 68.668 60.9492 68.9883 60.5664C69.3086 60.1836 69.4688 59.6406 69.4688 58.9375C69.4688 57.4062 68.9141 56.6211 67.8047 56.582H65.3789ZM65.3789 54.0742H67.1719C68.5234 54.0742 69.1992 53.375 69.1992 51.9766C69.1992 51.2031 69.043 50.6484 68.7305 50.3125C68.418 49.9766 67.9102 49.8086 67.207 49.8086H65.3789V54.0742ZM87.4219 57.0039C87.4219 59.293 86.8789 61.0703 85.793 62.3359C84.7148 63.6016 83.2148 64.2344 81.293 64.2344C79.3789 64.2344 77.875 63.6094 76.7812 62.3594C75.6875 61.1016 75.1328 59.3438 75.1172 57.0859V54.168C75.1172 51.8242 75.6602 49.9961 76.7461 48.6836C77.832 47.3633 79.3398 46.7031 81.2695 46.7031C83.168 46.7031 84.6641 47.3516 85.7578 48.6484C86.8516 49.9375 87.4062 51.75 87.4219 54.0859V57.0039ZM83.9648 54.1445C83.9648 52.6055 83.7461 51.4609 83.3086 50.7109C82.8711 49.9609 82.1914 49.5859 81.2695 49.5859C80.3555 49.5859 79.6797 49.9492 79.2422 50.6758C78.8047 51.3945 78.5781 52.4922 78.5625 53.9688V57.0039C78.5625 58.4961 78.7852 59.5977 79.2305 60.3086C79.6758 61.0117 80.3633 61.3633 81.293 61.3633C82.1914 61.3633 82.8594 61.0195 83.2969 60.332C83.7344 59.6367 83.957 58.5625 83.9648 57.1094V54.1445ZM89.8945 64V46.9375H94.4062C96.3984 46.9375 97.9844 47.5703 99.1641 48.8359C100.352 50.1016 100.957 51.8359 100.98 54.0391V56.8047C100.98 59.0469 100.387 60.8086 99.1992 62.0898C98.0195 63.3633 96.3906 64 94.3125 64H89.8945ZM93.3398 49.8086V61.1406H94.3711C95.5195 61.1406 96.3281 60.8398 96.7969 60.2383C97.2656 59.6289 97.5117 58.582 97.5352 57.0977V54.1328C97.5352 52.5391 97.3125 51.4297 96.8672 50.8047C96.4219 50.1719 95.6641 49.8398 94.5938 49.8086H93.3398ZM108.094 54.6016L110.66 46.9375H114.41L109.84 57.8125V64H106.348V57.8125L101.766 46.9375H105.516L108.094 54.6016ZM120.984 59.4062C120.984 58.6016 121.164 57.875 121.523 57.2266C121.891 56.5703 122.574 55.832 123.574 55.0117C123.145 54.332 122.805 53.6914 122.555 53.0898C122.305 52.4805 122.18 51.8516 122.18 51.2031C122.18 49.8672 122.551 48.7852 123.293 47.957C124.035 47.1211 125.027 46.7031 126.27 46.7031C127.387 46.7031 128.305 47.0898 129.023 47.8633C129.75 48.6289 130.113 49.5703 130.113 50.6875C130.113 52.1719 129.492 53.4102 128.25 54.4023L127.312 55.1641L129.504 58.2227C129.777 57.418 129.914 56.5508 129.914 55.6211H132.715C132.715 57.8164 132.285 59.582 131.426 60.918L133.629 64H129.867L129.234 63.1094C128.227 63.8594 127.062 64.2344 125.742 64.2344C124.305 64.2344 123.152 63.793 122.285 62.9102C121.418 62.0273 120.984 60.8594 120.984 59.4062ZM125.918 61.4922C126.535 61.4922 127.117 61.2891 127.664 60.8828L124.969 57.0742L124.898 57.1328C124.508 57.7344 124.312 58.4258 124.312 59.207C124.312 59.8633 124.465 60.4102 124.77 60.8477C125.082 61.2773 125.465 61.4922 125.918 61.4922ZM125.133 51.1445C125.133 51.6992 125.398 52.3789 125.93 53.1836L126.48 52.7617C126.809 52.5117 127.043 52.2539 127.184 51.9883C127.324 51.7148 127.395 51.3516 127.395 50.8984C127.395 50.4922 127.281 50.1523 127.055 49.8789C126.836 49.5977 126.57 49.457 126.258 49.457C125.914 49.457 125.641 49.6133 125.438 49.9258C125.234 50.2305 125.133 50.6367 125.133 51.1445ZM144.387 58V64H140.941V46.9375H146.754C148.441 46.9375 149.785 47.4609 150.785 48.5078C151.793 49.5547 152.297 50.9141 152.297 52.5859C152.297 54.2578 151.801 55.5781 150.809 56.5469C149.816 57.5156 148.441 58 146.684 58H144.387ZM144.387 55.1289H146.754C147.41 55.1289 147.918 54.9141 148.277 54.4844C148.637 54.0547 148.816 53.4297 148.816 52.6094C148.816 51.7578 148.633 51.082 148.266 50.582C147.898 50.0742 147.406 49.8164 146.789 49.8086H144.387V55.1289ZM160.664 60.5078H155.965L155.051 64H151.406L156.738 46.9375H159.891L165.258 64H161.578L160.664 60.5078ZM156.715 57.6367H159.902L158.309 51.5547L156.715 57.6367ZM170.461 64H167.016V46.9375H170.461V64ZM185.285 64H181.84L176.801 52.8086V64H173.355V46.9375H176.801L181.852 58.1406V46.9375H185.285V64ZM198.75 49.8086H194.531V64H191.074V49.8086H186.926V46.9375H198.75V49.8086Z" fill="black"/>
</svg>
